<svg width="41" height="40" viewBox="0 0 41 40" version="1.1" xmlns="http://www.w3.org/2000/svg" xmlns:xlink="http://www.w3.org/1999/xlink">
<title>&#208;&#178;&#208;&#191;&#208;&#181;&#209;&#128;&#208;&#181;&#208;&#180;</title>
<desc>Created using Figma</desc>
<g id="Canvas" transform="translate(-22651 -8149)">
<g id="&#208;&#178;&#208;&#191;&#208;&#181;&#209;&#128;&#208;&#181;&#208;&#180;">
<g id="Ellipse">
<mask id="mask0_outline_ins">
<use xlink:href="#path0_fill" fill="white" transform="translate(22651.8 8149)"/>
</mask>
<g mask="url(#mask0_outline_ins)">
<use xlink:href="#path1_stroke_2x" transform="translate(22651.8 8149)" fill="#FF7800"/>
</g>
</g>
<g id="Rectangle">
<use xlink:href="#path2_stroke" transform="matrix(0.707107 -0.707107 -0.707107 -0.707107 22669.7 8174.31)" fill="#FF7800"/>
</g>
</g>
</g>
<defs>
<path id="path0_fill" d="M 40.25 20C 40.25 31.0457 31.2397 40 20.125 40C 9.01027 40 0 31.0457 0 20C 0 8.9543 9.01027 0 20.125 0C 31.2397 0 40.25 8.9543 40.25 20Z"/>
<path id="path1_stroke_2x" d="M 38.25 20C 38.25 29.9294 30.1469 38 20.125 38L 20.125 42C 32.3325 42 42.25 32.162 42.25 20L 38.25 20ZM 20.125 38C 10.1031 38 2 29.9294 2 20L -2 20C -2 32.162 7.91747 42 20.125 42L 20.125 38ZM 2 20C 2 10.0706 10.1031 2 20.125 2L 20.125 -2C 7.91747 -2 -2 7.83801 -2 20L 2 20ZM 20.125 2C 30.1469 2 38.25 10.0706 38.25 20L 42.25 20C 42.25 7.83801 32.3325 -2 20.125 -2L 20.125 2Z"/>
<path id="path2_stroke" d="M 0 -1C -0.552285 -1 -1 -0.552285 -1 0C -1 0.552285 -0.552285 1 0 1L 0 -1ZM 7 8C 7 8.55229 7.44772 9 8 9C 8.55229 9 9 8.55229 9 8L 7 8ZM 0 1L 7 1L 7 -1L 0 -1L 0 1ZM 7 1L 7 8L 9 8L 9 1L 7 1ZM 7 1L 9 1C 9 -0.10457 8.10457 -1 7 -1L 7 1Z"/>
</defs>
</svg>
