<svg width="13" height="18" viewBox="0 0 13 18" version="1.1" xmlns="http://www.w3.org/2000/svg" xmlns:xlink="http://www.w3.org/1999/xlink">
<title>q</title>
<desc>Created using Figma</desc>
<g id="Canvas" transform="translate(-22749 -7687)">
<g id="q">
<use xlink:href="#path0_fill" transform="translate(22749 7687)" fill="#B8C0D1"/>
</g>
</g>
<defs>
<path id="path0_fill" d="M 0 11.3143L 1.6374 11.3143L 1.6374 13.0114L 0 13.0114L 0 15.0429L 1.6374 15.0429L 1.6374 18L 3.94466 18L 3.94466 15.0429L 12.2805 15.0429L 12.2805 13.0114L 3.94466 13.0114L 3.94466 11.2886L 6.25191 11.2886C 8.73282 11.2886 10.271 10.6714 11.4618 9.43714C 12.4542 8.43428 13 7.04571 13 5.42571C 13 3.36857 12.2309 2.05714 10.916 1.13143C 9.79962 0.334286 8.43511 0 6.32634 0L 1.6374 0L 1.6374 9.25714L 0 9.25714L 0 11.3143ZM 10.5935 5.50286C 10.5935 6.55714 10.3206 7.40571 9.60114 8.15143C 8.83206 8.89714 7.76527 9.25714 5.87977 9.25714L 3.94466 9.25714L 3.94466 2.05714L 6.2271 2.05714C 7.69084 2.05714 8.55916 2.26286 9.32824 2.77714C 10.1966 3.36857 10.5935 4.24286 10.5935 5.50286Z"/>
</defs>
</svg>
