<svg width="41" height="40" viewBox="0 0 41 40" xmlns="http://www.w3.org/2000/svg" xmlns:xlink="http://www.w3.org/1999/xlink"><title>вперед</title><desc>Created using Figma</desc><g transform="translate(-22651 -8149)"><mask id="b"><use xlink:href="#a" fill="#fff" transform="translate(22651.8 8149)"/></mask><g mask="url(#b)"><use xlink:href="#c" transform="translate(22651.8 8149)" fill="#FF7800"/></g></g><use xlink:href="#d" transform="scale(1 -1) rotate(45 39.902 9.918)" fill="#FF7800"/><defs><path id="a" d="M40.25 20c0 11.046-9.01 20-20.125 20S0 31.046 0 20 9.01 0 20.125 0 40.25 8.954 40.25 20z"/><path id="c" d="M38.25 20c0 9.93-8.103 18-18.125 18v4c12.208 0 22.125-9.838 22.125-22h-4zM20.125 38C10.103 38 2 29.93 2 20h-4c0 12.162 9.917 22 22.125 22v-4zM2 20c0-9.93 8.103-18 18.125-18v-4C7.917-2-2 7.838-2 20h4zM20.125 2C30.147 2 38.25 10.07 38.25 20h4c0-12.162-9.917-22-22.125-22v4z"/><path id="d" d="M0-1a1 1 0 1 0 0 2v-2zm7 9a1 1 0 1 0 2 0H7zM0 1h7v-2H0v2zm7 0v7h2V1H7zm0 0h2a2 2 0 0 0-2-2v2z"/></defs></svg>