<svg width="49" height="48" viewBox="0 0 49 48" xmlns="http://www.w3.org/2000/svg" xmlns:xlink="http://www.w3.org/1999/xlink"><title>Назад</title><desc>Created using Figma</desc><g filter="url(#a)" transform="translate(-22631 -8067)"><mask id="c"><use xlink:href="#b" fill="#fff" transform="translate(22635 8067)"/></mask><g mask="url(#c)"><use xlink:href="#d" transform="translate(22635 8067)" fill="#D8DCE6"/></g><use xlink:href="#e" transform="rotate(-135 13004.32 -646.202)" fill="#D8DCE6"/></g><defs><filter id="a" filterUnits="userSpaceOnUse" x="22631" y="8067" width="49" height="48" color-interpolation-filters="sRGB"><feFlood flood-opacity="0" result="BackgroundImageFix"/><feColorMatrix in="SourceAlpha" values="0 0 0 0 0 0 0 0 0 0 0 0 0 0 0 0 0 0 255 0"/><feOffset dy="4"/><feGaussianBlur stdDeviation="2"/><feColorMatrix values="0 0 0 0 0 0 0 0 0 0 0 0 0 0 0 0 0 0 0.25 0"/><feBlend in2="BackgroundImageFix" result="effect1_dropShadow"/><feColorMatrix in="SourceAlpha" values="0 0 0 0 0 0 0 0 0 0 0 0 0 0 0 0 0 0 255 0"/><feOffset dy="4"/><feGaussianBlur stdDeviation="2"/><feColorMatrix values="0 0 0 0 0 0 0 0 0 0 0 0 0 0 0 0 0 0 0.25 0"/><feBlend in2="effect1_dropShadow" result="effect2_dropShadow"/><feBlend in="SourceGraphic" in2="effect2_dropShadow" result="shape"/></filter><path id="b" d="M40.25 20c0 11.046-9.01 20-20.125 20S0 31.046 0 20 9.01 0 20.125 0 40.25 8.954 40.25 20z"/><path id="d" d="M38.25 20c0 9.93-8.103 18-18.125 18v4c12.208 0 22.125-9.838 22.125-22h-4zM20.125 38C10.103 38 2 29.93 2 20h-4c0 12.162 9.917 22 22.125 22v-4zM2 20c0-9.93 8.103-18 18.125-18v-4C7.917-2-2 7.838-2 20h4zM20.125 2C30.147 2 38.25 10.07 38.25 20h4c0-12.162-9.917-22-22.125-22v4z"/><path id="e" d="M0-1a1 1 0 1 0 0 2v-2zm7 9a1 1 0 1 0 2 0H7zM0 1h7v-2H0v2zm7 0v7h2V1H7zm0 0h2a2 2 0 0 0-2-2v2z"/></defs></svg>