<svg width="36" height="36" viewBox="0 0 36 36" xmlns="http://www.w3.org/2000/svg" xmlns:xlink="http://www.w3.org/1999/xlink"><title>Rectangle 5.1</title><desc>Created using Figma</desc><g transform="translate(-22563 -10029)"><mask id="b"><use xlink:href="#a" fill="#fff" transform="translate(22563 10029)"/></mask><g mask="url(#b)"><use xlink:href="#c" transform="translate(22563 10029)" fill="#DDE0E9"/></g></g><defs><path id="a" d="M0 5a5 5 0 0 1 5-5h26a5 5 0 0 1 5 5v26a5 5 0 0 1-5 5H5a5 5 0 0 1-5-5V5z"/><path id="c" d="M5 2h26v-4H5v4zm29 3v26h4V5h-4zm-3 29H5v4h26v-4zM2 31V5h-4v26h4zm3 3a3 3 0 0 1-3-3h-4a7 7 0 0 0 7 7v-4zm29-3a3 3 0 0 1-3 3v4a7 7 0 0 0 7-7h-4zM31 2a3 3 0 0 1 3 3h4a7 7 0 0 0-7-7v4zM5-2a7 7 0 0 0-7 7h4a3 3 0 0 1 3-3v-4z"/></defs></svg>