<svg width="14" height="11" viewBox="0 0 14 11" xmlns="http://www.w3.org/2000/svg" xmlns:xlink="http://www.w3.org/1999/xlink"><title>Vector</title><desc>Created using Figma</desc><use xlink:href="#a" fill="#17914B"/><defs><path id="a" d="M.162 6.05A.6.6 0 0 1 0 5.665a.6.6 0 0 1 .162-.385l.753-.77a.513.513 0 0 1 .754 0l.054.055L4.685 7.81c.107.11.269.11.377 0L12.277.165h.054a.513.513 0 0 1 .754 0l.753.77a.54.54 0 0 1 0 .77l-8.615 9.13a.484.484 0 0 1-.377.165.484.484 0 0 1-.377-.165l-4.2-4.62-.107-.165z"/></defs></svg>