<svg width="79" height="89" viewBox="0 0 79 89" version="1.1" xmlns="http://www.w3.org/2000/svg" xmlns:xlink="http://www.w3.org/1999/xlink">
<g id="Canvas" fill="none">
<g id="Group">
<g id="&#208;&#158;&#208;&#164;&#208;&#148;">
<path d="M 0 8.3861C 0 12.8802 3.40657 16.3851 7.91272 16.3851C 12.4189 16.3851 15.8254 12.8802 15.8254 8.3861C 15.8254 4.02103 12.4189 0.602079 7.91272 0.602079C 3.40657 0.602079 0 4.02103 0 8.3861ZM 2.86755 8.3861C 2.86755 5.41871 5.10985 3.13941 7.91272 3.13941C 10.7156 3.13941 12.9579 5.41871 12.9579 8.3861C 12.9579 11.4825 10.7156 13.8478 7.91272 13.8478C 5.10985 13.8478 2.86755 11.4825 2.86755 8.3861Z" transform="translate(14.7148 35.8994)" fill="#FF7800"/>
<path d="M 17.4913 7.99905C 17.4913 11.7835 20.3373 14.4499 24.4985 14.4499L 24.4985 16.3851L 27.2798 16.3851L 27.2798 14.4499C 31.4626 14.4499 34.287 11.7835 34.287 7.99905C 34.287 4.27906 31.441 1.67722 27.2798 1.67722L 27.2798 0L 24.4985 0L 24.4985 1.67722C 20.3373 1.67722 17.4913 4.27906 17.4913 7.99905ZM 27.2798 12.1276L 27.2798 3.99952C 29.7593 3.99952 31.4626 5.61223 31.4626 7.99905C 31.4626 10.4504 29.7593 12.1276 27.2798 12.1276ZM 20.3373 7.99905C 20.3373 5.61223 22.0406 3.99952 24.4985 3.99952L 24.4985 12.1276C 22.0406 12.1276 20.3373 10.4504 20.3373 7.99905Z" transform="translate(14.7148 35.8994)" fill="#FF7800"/>
<path d="M 38.9739 13.7403C 40.5694 11.16 40.9575 7.37546 40.9575 4.38657L 40.9575 3.24693L 45.054 3.24693L 45.054 13.7403L 38.9739 13.7403ZM 34.554 13.7403L 34.554 19.1375L 37.1197 19.1375L 37.1197 16.1271L 47.0591 16.1271L 47.0591 19.1375L 49.5386 19.1375L 49.5386 13.7403L 47.8353 13.7403L 47.8353 0.860113L 38.3271 0.860113L 38.3271 4.19305C 38.3271 7.28945 38.0037 10.8804 36.1063 13.7403L 34.554 13.7403Z" transform="translate(14.7148 35.8994)" fill="#FF7800"/>
</g>
<g id="Vector">
<path d="M 73.0466 30.01C 66.1609 36.9118 57.0159 40.714 47.2838 40.714C 27.211 40.714 10.8772 24.3364 10.8581 4.20437L 18.2865 11.6665C 18.7788 12.1573 19.5711 12.1573 20.0629 11.6665C 20.5489 11.1726 20.5489 10.3751 20.0629 9.88429L 10.215 0L 0.369276 9.88429C -0.123092 10.3751 -0.123092 11.1731 0.369276 11.6665C 0.612022 11.9133 0.934097 12.0337 1.253 12.0337C 1.57825 12.0337 1.89979 11.9101 2.13989 11.6665L 8.39418 5.38864C 9.04732 26.3632 26.2109 43.2343 47.2716 43.2343C 57.6759 43.2343 67.455 39.1695 74.8141 31.7895C 75.3033 31.2987 75.3033 30.5007 74.8141 30.0105C 74.3376 29.516 73.539 29.516 73.0466 30.01Z" transform="matrix(-0.501006 0.865444 -0.866605 -0.498995 66.9004 5.5752)" fill="#FF7800"/>
</g>
<g id="Vector_2">
<path d="M 74.8172 31.5678C 74.3312 31.077 73.5358 31.077 73.044 31.5678L 66.7955 37.8425C 66.136 16.8679 48.9725 0 27.9149 0C 17.5043 0 7.72834 4.06482 0.369276 11.4447C -0.123092 11.9355 -0.123092 12.7335 0.369276 13.2238C 0.855297 13.7178 1.65387 13.7178 2.14254 13.2238C 9.02511 6.32193 18.1733 2.51975 27.9054 2.51975C 47.975 2.51975 64.312 18.8942 64.3374 39.0294L 56.9027 31.5672C 56.4135 31.0764 55.6181 31.0764 55.1263 31.5672C 54.6402 32.0612 54.6402 32.8587 55.1263 33.3495L 64.9752 43.2306L 74.8209 33.3495C 75.3096 32.8592 75.3096 32.0612 74.8172 31.5678Z" transform="matrix(-0.501006 0.865444 -0.866605 -0.498995 87.5117 39.9307)" fill="#FF7800"/>
</g>
</g>
</g>
</svg>

