<svg width="13" height="18" viewBox="0 0 13 18" xmlns="http://www.w3.org/2000/svg" xmlns:xlink="http://www.w3.org/1999/xlink"><title>q</title><desc>Created using Figma</desc><use xlink:href="#a" fill="#B8C0D1"/><defs><path id="a" d="M0 11.314h1.637v1.697H0v2.032h1.637V18h2.308v-2.957h8.336V13.01H3.944v-1.72h2.307c2.48 0 4.019-.618 5.21-1.852C12.454 8.434 13 7.046 13 5.426c0-2.057-.77-3.369-2.084-4.295C9.8.334 8.436 0 6.326 0H1.637v9.257H0v2.057zm10.594-5.811c0 1.054-.273 1.903-.993 2.648-.769.746-1.836 1.106-3.721 1.106H3.945v-7.2h2.282c1.464 0 2.332.206 3.101.72.869.592 1.266 1.466 1.266 2.726z"/></defs></svg>